<?xml version="1.0" encoding="UTF-8" standalone="no"?>
<!DOCTYPE svg PUBLIC "-//W3C//DTD SVG 1.1//EN" "http://www.w3.org/Graphics/SVG/1.1/DTD/svg11.dtd">
<svg width="100%" height="100%" viewBox="0 0 800 800" version="1.1" xmlns="http://www.w3.org/2000/svg" xmlns:xlink="http://www.w3.org/1999/xlink" xml:space="preserve" xmlns:serif="http://www.serif.com/" style="fill-rule:evenodd;clip-rule:evenodd;">
    <g id="SVGRepo_iconCarrier">
        <path d="M583.333,0L283.333,0L233.333,50L233.333,200L83.333,200L33.333,250L33.333,752.333L83.333,800L485.667,800L533.333,752.333L533.333,600L690,600L733.333,552.333L733.333,150L583.333,0ZM583.333,70.667L662.667,150L583.333,150L583.333,70.667ZM483.333,750L83.333,750L83.333,250L233.333,250L233.333,552.333L283.333,600L483.333,600L483.333,750ZM683.333,550L283.333,550L283.333,50L533.333,50L533.333,200L683.333,200L683.333,550Z" style="fill:rgb(196,196,196);fill-rule:nonzero;stroke:rgb(194,196,200);stroke-width:1px;"/>
    </g>
</svg>
