<?xml version="1.0" encoding="UTF-8" standalone="no"?>
<!DOCTYPE svg PUBLIC "-//W3C//DTD SVG 1.1//EN" "http://www.w3.org/Graphics/SVG/1.1/DTD/svg11.dtd">
<svg width="100%" height="100%" viewBox="0 0 800 800" version="1.1" xmlns="http://www.w3.org/2000/svg" xmlns:xlink="http://www.w3.org/1999/xlink" xml:space="preserve" xmlns:serif="http://www.serif.com/" style="fill-rule:evenodd;clip-rule:evenodd;stroke-linejoin:round;stroke-miterlimit:2;">
    <g transform="matrix(1,0,0,1,-0.5,-4.5)">
        <g id="right-side" serif:id="right side" transform="matrix(1,0,0,1,0.5,4.5)">
            <path d="M347.5,663.5L688.5,663.5C701.761,663.5 714.479,658.232 723.855,648.855C733.232,639.479 738.5,626.761 738.5,613.5L738.5,186.5C738.5,173.239 733.232,160.521 723.855,151.145C714.479,141.768 701.761,136.5 688.5,136.5L347.5,136.5L347.5,663.5ZM364.5,593.5L639.709,593.5C656.162,593.5 669.5,580.162 669.5,563.709C669.5,491.615 669.5,308.385 669.5,236.291C669.5,219.838 656.162,206.5 639.709,206.5C587.859,206.5 364.5,206.5 364.5,206.5L364.5,593.5Z" style="fill:white;fill-opacity:0.9;"/>
        </g>
        <g id="left-side" serif:id="left side" transform="matrix(1,0,0,1,-8,0)">
            <g opacity="0.9">
                <g transform="matrix(1,0,0,1,8.5,4.5)">
                    <path d="M347.5,136.5L111.5,136.5C98.239,136.5 85.521,141.768 76.145,151.145C66.768,160.521 61.5,173.239 61.5,186.5C61.5,287.096 61.5,512.904 61.5,613.5C61.5,626.761 66.768,639.479 76.145,648.855C85.521,658.232 98.239,663.5 111.5,663.5C193.487,663.5 347.5,663.5 347.5,663.5L347.5,136.5ZM294.5,478.885C294.5,465.363 283.522,454.385 270,454.385L139,454.385C125.478,454.385 114.5,465.363 114.5,478.885L114.5,499.885C114.5,513.407 125.478,524.385 139,524.385L270,524.385C283.522,524.385 294.5,513.407 294.5,499.885L294.5,478.885ZM294.5,361.902C294.5,348.38 283.522,337.402 270,337.402L139,337.402C125.478,337.402 114.5,348.38 114.5,361.902L114.5,382.902C114.5,396.424 125.478,407.402 139,407.402L270,407.402C283.522,407.402 294.5,396.424 294.5,382.902L294.5,361.902ZM294.5,243C294.5,229.478 283.522,218.5 270,218.5L139,218.5C125.478,218.5 114.5,229.478 114.5,243L114.5,264C114.5,277.522 125.478,288.5 139,288.5L270,288.5C283.522,288.5 294.5,277.522 294.5,264L294.5,243Z" style="fill:white;"/>
                </g>
            </g>
        </g>
    </g>
</svg>
